<?xml version="1.0" encoding="iso-8859-1"?>
<!-- Uploaded to: SVG Repo, www.svgrepo.com, Generator: SVG Repo Mixer Tools -->
<svg height="53px" width="53px" version="1.1" id="Layer_1" xmlns="http://www.w3.org/2000/svg" xmlns:xlink="http://www.w3.org/1999/xlink" 
	 viewBox="0 0 512 512" xml:space="preserve">
<path style="fill:#4FC0E8;" d="M0,256.006C0,397.402,114.606,512.004,255.996,512C397.394,512.004,512,397.402,512,256.006
	C512.009,114.61,397.394,0,255.996,0C114.606,0,0,114.614,0,256.006z"/>
<path style="fill:#3DAED9;" d="M512,256.005c0.002-30.013-5.207-58.796-14.694-85.555c-0.15-0.151-0.288-0.315-0.455-0.455
	c-0.267-0.32-76.671-76.724-76.99-76.99c-1.265-1.517-3.097-2.538-5.226-2.538H97.365c-3.809,0-6.897,3.089-6.897,6.898v317.269
	c0,2.128,1.02,3.959,2.535,5.225c0.267,0.32,0.546,0.599,0.866,0.866c0.267,0.319,0.545,0.597,0.865,0.864
	c0.268,0.32,74.941,74.994,75.261,75.261c0.141,0.17,0.306,0.307,0.459,0.458c26.755,9.484,55.535,14.692,85.542,14.691
	C397.394,512.004,512,397.401,512,256.005z"/>
<g>
	<path style="fill:#F4F6F9;" d="M207.719,245.654c17.115,0,31.037-13.922,31.037-31.037s-13.922-31.037-31.037-31.037
		s-31.037,13.922-31.037,31.037S190.605,245.654,207.719,245.654z M207.719,197.374c9.507,0,17.243,7.735,17.243,17.243
		s-7.735,17.243-17.243,17.243s-17.243-7.735-17.243-17.243C190.477,205.109,198.212,197.374,207.719,197.374z"/>
	<path style="fill:#F4F6F9;" d="M192.497,319.503c1.347,1.347,3.111,2.02,4.877,2.02c1.764,0,3.53-0.673,4.877-2.02l110.355-110.355
		c2.694-2.694,2.694-7.059,0-9.753c-2.694-2.693-7.059-2.694-9.753,0L192.497,309.749
		C189.804,312.444,189.804,316.809,192.497,319.503z"/>
	<path style="fill:#F4F6F9;" d="M269.794,300.832c0,17.115,13.922,31.037,31.037,31.037s31.037-13.922,31.037-31.037
		c0-17.115-13.922-31.037-31.037-31.037S269.794,283.716,269.794,300.832z M318.075,300.832c0,9.507-7.735,17.243-17.243,17.243
		c-9.507,0-17.243-7.735-17.243-17.243c0-9.507,7.736-17.243,17.243-17.243C310.339,283.588,318.075,291.325,318.075,300.832z"/>
	<path style="fill:#F4F6F9;" d="M414.635,90.468H97.365c-3.809,0-6.897,3.088-6.897,6.897v317.269c0,3.809,3.088,6.897,6.897,6.897
		h317.269c3.809,0,6.897-3.088,6.897-6.897V97.365C421.532,93.556,418.444,90.468,414.635,90.468z M407.738,407.738H104.262V104.262
		h303.475V407.738z"/>
</g>
</svg>